<svg width="307" height="46" viewBox="0 0 307 46" fill="none" xmlns="http://www.w3.org/2000/svg">
<rect y="7.11377" width="7.14297" height="38.7927" fill="#5038BC"/>
<path d="M22.7691 -1.59777e-09L29.9121 7.11385L0.000915217 7.11385L7.14389 -1.30722e-06L22.7691 -1.59777e-09Z" fill="#5038BC"/>
<path d="M6.13867 24.6763L9.71016 17.5624L29.9114 17.5624L22.7684 24.6763L6.13867 24.6763Z" fill="#5038BC"/>
<mask id="mask0_3008_11221" style="mask-type:alpha" maskUnits="userSpaceOnUse" x="0" y="7" width="8" height="29">
<rect opacity="0.45" y="7.11377" width="7.14297" height="28.4554" fill="#B9B9B9"/>
</mask>
<g mask="url(#mask0_3008_11221)">
<ellipse opacity="0.5" cx="6.19204" cy="7.12935" rx="7.89712" ry="4.52657" fill="url(#paint0_radial_3008_11221)"/>
<ellipse opacity="0.5" cx="10.3799" cy="24.6759" rx="7.36619" ry="4.89077" fill="url(#paint1_radial_3008_11221)"/>
</g>
<mask id="mask1_3008_11221" style="mask-type:alpha" maskUnits="userSpaceOnUse" x="7" y="0" width="16" height="8">
<rect opacity="0.45" x="22.7695" width="7.11385" height="15.6252" transform="rotate(90 22.7695 0)" fill="#5038BC"/>
</mask>
<g mask="url(#mask1_3008_11221)">
<ellipse opacity="0.5" cx="23.1037" cy="5.89112" rx="7.00269" ry="4.57597" transform="rotate(90 23.1037 5.89112)" fill="#5038BC"/>
</g>
<path d="M22.7695 0L29.9125 7.11384V17.5623H22.7695V0Z" fill="#5038BC"/>
<mask id="mask2_3008_11221" style="mask-type:alpha" maskUnits="userSpaceOnUse" x="22" y="7" width="8" height="11">
<rect opacity="0.45" x="29.9121" y="17.5625" width="7.14297" height="9.78154" transform="rotate(-180 29.9121 17.5625)" fill="#B9B9B9"/>
</mask>
<g mask="url(#mask2_3008_11221)">
<ellipse opacity="0.5" cx="23.996" cy="18.2296" rx="7.03136" ry="4.55731" transform="rotate(-180 23.996 18.2296)" fill="url(#paint2_radial_3008_11221)"/>
</g>
<mask id="mask3_3008_11221" style="mask-type:alpha" maskUnits="userSpaceOnUse" x="9" y="17" width="11" height="8">
<rect opacity="0.45" width="7.11385" height="9.82159" transform="matrix(-4.38904e-08 1 1 4.35332e-08 9.82227 17.5625)" fill="#B9B9B9"/>
</mask>
<g mask="url(#mask3_3008_11221)">
<ellipse opacity="0.7" cx="12.821" cy="4.56834" rx="12.821" ry="4.56834" transform="matrix(0.641289 0.7673 0.76987 -0.6382 -0.576172 16.3159)" fill="url(#paint3_radial_3008_11221)"/>
</g>
<path d="M6.13861 24.676L9.7101 17.5622L29.8555 41.1824L24.4425 45.8508L6.13861 24.676Z" fill="#5038BC"/>
<path d="M49.3576 24L45.8155 17.7438H44.2974V24H41.0773V7.94539H47.1035C48.3456 7.94539 49.4036 8.16773 50.2776 8.61241C51.1517 9.04176 51.8034 9.63212 52.2327 10.3835C52.6774 11.1195 52.8997 11.9475 52.8997 12.8676C52.8997 13.9256 52.5931 14.884 51.9797 15.7427C51.3664 16.5861 50.454 17.1687 49.2426 17.4908L53.0838 24H49.3576ZM44.2974 15.3287H46.9885C47.8626 15.3287 48.5142 15.1217 48.9436 14.7076C49.3729 14.2783 49.5876 13.6879 49.5876 12.9366C49.5876 12.2005 49.3729 11.6332 48.9436 11.2345C48.5142 10.8205 47.8626 10.6135 46.9885 10.6135H44.2974V15.3287ZM59.0324 7.94539V24H55.8122V7.94539H59.0324ZM67.7571 24.161C66.6377 24.161 65.6256 23.9693 64.7209 23.586C63.8316 23.2026 63.1262 22.6506 62.6049 21.9299C62.0835 21.2092 61.8152 20.3582 61.7998 19.3768H65.25C65.296 20.0362 65.526 20.5575 65.94 20.9409C66.3693 21.3242 66.952 21.5159 67.6881 21.5159C68.4394 21.5159 69.0298 21.3396 69.4591 20.9869C69.8885 20.6189 70.1031 20.1435 70.1031 19.5608C70.1031 19.0855 69.9575 18.6945 69.6661 18.3878C69.3748 18.0811 69.0068 17.8434 68.5621 17.6748C68.1327 17.4908 67.5347 17.2914 66.768 17.0767C65.7253 16.7701 64.8743 16.471 64.2149 16.1797C63.5709 15.873 63.0112 15.4207 62.5359 14.8226C62.0758 14.2093 61.8458 13.3966 61.8458 12.3846C61.8458 11.4339 62.0835 10.6058 62.5589 9.90046C63.0342 9.1951 63.7012 8.65841 64.5599 8.2904C65.4186 7.90705 66.4 7.71538 67.504 7.71538C69.1601 7.71538 70.5018 8.12173 71.5292 8.93442C72.5719 9.73179 73.1469 10.8512 73.2543 12.2926H69.7121C69.6815 11.7405 69.4438 11.2882 68.9991 10.9355C68.5698 10.5675 67.9947 10.3835 67.274 10.3835C66.6453 10.3835 66.1393 10.5445 65.756 10.8665C65.388 11.1885 65.204 11.6562 65.204 12.2696C65.204 12.6989 65.342 13.0592 65.618 13.3506C65.9093 13.6266 66.262 13.8566 66.676 14.0406C67.1054 14.2093 67.7034 14.4086 68.4701 14.6386C69.5128 14.9453 70.3638 15.252 71.0232 15.5587C71.6825 15.8654 72.2499 16.3254 72.7252 16.9387C73.2006 17.5521 73.4383 18.3571 73.4383 19.3538C73.4383 20.2125 73.2159 21.0099 72.7712 21.7459C72.3266 22.4819 71.6749 23.0723 70.8162 23.517C69.9575 23.9463 68.9378 24.161 67.7571 24.161ZM87.1554 7.94539V10.5445H82.8773V24H79.6571V10.5445H75.379V7.94539H87.1554ZM92.725 10.5445V14.5696H98.1303V17.1227H92.725V21.3779H98.8203V24H89.5049V7.92239H98.8203V10.5445H92.725ZM110.809 24L104.967 16.8467V24H101.747V7.94539H104.967V15.1447L110.809 7.94539H114.696L108.072 15.9037L114.88 24H110.809ZM132.392 7.94539V10.5445H125.699V14.6616H130.828V17.2147H125.699V24H122.479V7.94539H132.392ZM144.52 20.9409H138.126L137.068 24H133.687L139.46 7.92239H143.209L148.982 24H145.578L144.52 20.9409ZM143.646 18.3648L141.323 11.6485L139 18.3648H143.646ZM156.683 24.161C155.564 24.161 154.552 23.9693 153.647 23.586C152.758 23.2026 152.052 22.6506 151.531 21.9299C151.01 21.2092 150.741 20.3582 150.726 19.3768H154.176C154.222 20.0362 154.452 20.5575 154.866 20.9409C155.296 21.3242 155.878 21.5159 156.614 21.5159C157.366 21.5159 157.956 21.3396 158.385 20.9869C158.815 20.6189 159.029 20.1435 159.029 19.5608C159.029 19.0855 158.884 18.6945 158.592 18.3878C158.301 18.0811 157.933 17.8434 157.488 17.6748C157.059 17.4908 156.461 17.2914 155.694 17.0767C154.652 16.7701 153.801 16.471 153.141 16.1797C152.497 15.873 151.937 15.4207 151.462 14.8226C151.002 14.2093 150.772 13.3966 150.772 12.3846C150.772 11.4339 151.01 10.6058 151.485 9.90046C151.96 9.1951 152.627 8.65841 153.486 8.2904C154.345 7.90705 155.326 7.71538 156.43 7.71538C158.086 7.71538 159.428 8.12173 160.455 8.93442C161.498 9.73179 162.073 10.8512 162.181 12.2926H158.638C158.608 11.7405 158.37 11.2882 157.925 10.9355C157.496 10.5675 156.921 10.3835 156.2 10.3835C155.572 10.3835 155.066 10.5445 154.682 10.8665C154.314 11.1885 154.13 11.6562 154.13 12.2696C154.13 12.6989 154.268 13.0592 154.544 13.3506C154.836 13.6266 155.188 13.8566 155.602 14.0406C156.032 14.2093 156.63 14.4086 157.396 14.6386C158.439 14.9453 159.29 15.252 159.949 15.5587C160.609 15.8654 161.176 16.3254 161.651 16.9387C162.127 17.5521 162.365 18.3571 162.365 19.3538C162.365 20.2125 162.142 21.0099 161.697 21.7459C161.253 22.4819 160.601 23.0723 159.742 23.517C158.884 23.9463 157.864 24.161 156.683 24.161ZM168.376 7.94539V24H165.156V7.94539H168.376ZM174.778 21.4469H180.068V24H171.558V7.94539H174.778V21.4469ZM191.177 24L185.335 16.8467V24H182.115V7.94539H185.335V15.1447L191.177 7.94539H195.064L188.44 15.9037L195.248 24H191.177ZM204.819 24.161C203.316 24.161 201.936 23.8083 200.679 23.103C199.421 22.3976 198.425 21.4239 197.688 20.1819C196.952 18.9245 196.584 17.5061 196.584 15.9267C196.584 14.3626 196.952 12.9596 197.688 11.7175C198.425 10.4601 199.421 9.47878 200.679 8.77342C201.936 8.06806 203.316 7.71538 204.819 7.71538C206.337 7.71538 207.717 8.06806 208.959 8.77342C210.216 9.47878 211.205 10.4601 211.926 11.7175C212.662 12.9596 213.03 14.3626 213.03 15.9267C213.03 17.5061 212.662 18.9245 211.926 20.1819C211.205 21.4239 210.216 22.3976 208.959 23.103C207.702 23.8083 206.321 24.161 204.819 24.161ZM204.819 21.2859C205.785 21.2859 206.636 21.0712 207.372 20.6419C208.108 20.1972 208.683 19.5685 209.097 18.7558C209.511 17.9431 209.718 17.0001 209.718 15.9267C209.718 14.8533 209.511 13.9179 209.097 13.1206C208.683 12.3079 208.108 11.6869 207.372 11.2575C206.636 10.8282 205.785 10.6135 204.819 10.6135C203.853 10.6135 202.994 10.8282 202.243 11.2575C201.507 11.6869 200.932 12.3079 200.518 13.1206C200.104 13.9179 199.897 14.8533 199.897 15.9267C199.897 17.0001 200.104 17.9431 200.518 18.7558C200.932 19.5685 201.507 20.1972 202.243 20.6419C202.994 21.0712 203.853 21.2859 204.819 21.2859ZM232.929 7.94539V24H229.709V13.5576L225.408 24H222.97L218.646 13.5576V24H215.426V7.94539H219.083L224.189 19.8828L229.295 7.94539H232.929ZM244.768 7.94539V17.8818C244.768 18.9705 245.052 19.8062 245.619 20.3889C246.186 20.9562 246.984 21.2399 248.011 21.2399C249.054 21.2399 249.859 20.9562 250.426 20.3889C250.993 19.8062 251.277 18.9705 251.277 17.8818V7.94539H254.52V17.8588C254.52 19.2235 254.221 20.3812 253.623 21.3319C253.04 22.2673 252.251 22.9726 251.254 23.448C250.273 23.9233 249.176 24.161 247.965 24.161C246.769 24.161 245.68 23.9233 244.699 23.448C243.733 22.9726 242.966 22.2673 242.399 21.3319C241.831 20.3812 241.548 19.2235 241.548 17.8588V7.94539H244.768ZM260.852 7.94539V24H257.631V7.94539H260.852Z" fill="#5038BC"/>
<path d="M52.2813 36.668L51.7804 39.0116H53.9271V41.7666H51.19L50.5997 44.5037H47.7373L48.3277 41.7666H45.358L44.7677 44.5037H41.9053L42.4957 41.7666H39.848V39.0116H43.086L43.5869 36.668H40.993V33.913H44.1594L44.7319 31.2654H47.5942L47.0217 33.913H49.9914L50.5639 31.2654H53.4262L52.8537 33.913H55.0721V36.668H52.2813ZM49.4189 36.668H46.4493L45.9484 39.0116H48.918L49.4189 36.668ZM64.3799 38.0634C65.1075 38.2185 65.6918 38.5822 66.1331 39.1547C66.5744 39.7152 66.795 40.3592 66.795 41.0868C66.795 42.1363 66.4253 42.9711 65.6859 43.5913C64.9584 44.1995 63.9387 44.5037 62.6268 44.5037H56.7769V31.9452H62.43C63.7061 31.9452 64.702 32.2374 65.4175 32.8218C66.145 33.4062 66.5088 34.1993 66.5088 35.2011C66.5088 35.9405 66.312 36.5547 65.9184 37.0437C65.5368 37.5327 65.024 37.8726 64.3799 38.0634ZM59.836 37.0258H61.8396C62.3405 37.0258 62.7222 36.9185 62.9846 36.7038C63.2589 36.4772 63.396 36.1492 63.396 35.7199C63.396 35.2905 63.2589 34.9626 62.9846 34.736C62.7222 34.5094 62.3405 34.3961 61.8396 34.3961H59.836V37.0258ZM62.0901 42.0349C62.6029 42.0349 62.9965 41.9216 63.2708 41.695C63.557 41.4565 63.7001 41.1166 63.7001 40.6753C63.7001 40.234 63.5511 39.8882 63.2529 39.6377C62.9667 39.3872 62.5671 39.262 62.0543 39.262H59.836V42.0349H62.0901ZM71.6284 34.3961V36.9364H75.7251V39.2978H71.6284V42.0528H76.2618V44.5037H68.5693V31.9452H76.2618V34.3961H71.6284ZM89.0174 31.9452L84.6702 40.3533V44.5037H81.6111V40.3533L77.2639 31.9452H80.7345L83.1675 37.2047L85.5826 31.9452H89.0174ZM96.1893 44.6289C95.0086 44.6289 93.9233 44.3546 92.9334 43.806C91.9554 43.2574 91.1742 42.4941 90.5898 41.5161C90.0174 40.5262 89.7311 39.4171 89.7311 38.1886C89.7311 36.9602 90.0174 35.857 90.5898 34.8791C91.1742 33.9011 91.9554 33.1378 92.9334 32.5892C93.9233 32.0406 95.0086 31.7663 96.1893 31.7663C97.37 31.7663 98.4493 32.0406 99.4273 32.5892C100.417 33.1378 101.192 33.9011 101.753 34.8791C102.325 35.857 102.612 36.9602 102.612 38.1886C102.612 39.4171 102.325 40.5262 101.753 41.5161C101.18 42.4941 100.405 43.2574 99.4273 43.806C98.4493 44.3546 97.37 44.6289 96.1893 44.6289ZM96.1893 41.8381C97.1911 41.8381 97.9902 41.5042 98.5865 40.8363C99.1947 40.1684 99.4988 39.2859 99.4988 38.1886C99.4988 37.0795 99.1947 36.1969 98.5865 35.541C97.9902 34.8731 97.1911 34.5392 96.1893 34.5392C95.1755 34.5392 94.3645 34.8671 93.7563 35.5231C93.16 36.179 92.8618 37.0676 92.8618 38.1886C92.8618 39.2978 93.16 40.1863 93.7563 40.8542C94.3645 41.5101 95.1755 41.8381 96.1893 41.8381ZM115.548 44.5037H112.489L107.373 36.7575V44.5037H104.314V31.9452H107.373L112.489 39.7271V31.9452H115.548V44.5037ZM122.471 31.9452C123.794 31.9452 124.951 32.2076 125.941 32.7323C126.931 33.2571 127.694 33.9965 128.231 34.9506C128.78 35.8928 129.054 36.9841 129.054 38.2244C129.054 39.4528 128.78 40.5441 128.231 41.4982C127.694 42.4523 126.925 43.1918 125.923 43.7165C124.933 44.2413 123.782 44.5037 122.471 44.5037H117.766V31.9452H122.471ZM122.274 41.856C123.431 41.856 124.331 41.54 124.975 40.9079C125.619 40.2758 125.941 39.3813 125.941 38.2244C125.941 37.0676 125.619 36.1671 124.975 35.5231C124.331 34.8791 123.431 34.5571 122.274 34.5571H120.825V41.856H122.274ZM137.275 38.0813C137.729 38.1529 138.14 38.3377 138.51 38.6359C138.891 38.934 139.19 39.3038 139.404 39.745C139.631 40.1863 139.744 40.6574 139.744 41.1583C139.744 41.7904 139.583 42.3629 139.261 42.8757C138.939 43.3766 138.468 43.7762 137.848 44.0743C137.24 44.3605 136.518 44.5037 135.683 44.5037H131.032V32.0346H135.504C136.351 32.0346 137.073 32.1777 137.669 32.464C138.265 32.7383 138.712 33.114 139.011 33.591C139.309 34.0681 139.458 34.6048 139.458 35.2011C139.458 35.9405 139.255 36.5547 138.85 37.0437C138.456 37.5208 137.931 37.8666 137.275 38.0813ZM132.66 37.4194H135.397C136.16 37.4194 136.751 37.2405 137.168 36.8827C137.585 36.5249 137.794 36.03 137.794 35.3979C137.794 34.7658 137.585 34.2708 137.168 33.913C136.751 33.5552 136.148 33.3763 135.361 33.3763H132.66V37.4194ZM135.54 43.1619C136.351 43.1619 136.983 42.9711 137.436 42.5895C137.89 42.2078 138.116 41.6771 138.116 40.9973C138.116 40.3056 137.878 39.7629 137.401 39.3694C136.924 38.9639 136.285 38.7611 135.486 38.7611H132.66V43.1619H135.54ZM147.656 44.6289C146.499 44.6289 145.444 44.3605 144.49 43.8239C143.536 43.2752 142.778 42.5179 142.218 41.5519C141.669 40.5739 141.395 39.4767 141.395 38.2602C141.395 37.0437 141.669 35.9524 142.218 34.9864C142.778 34.0084 143.536 33.2511 144.49 32.7144C145.444 32.1658 146.499 31.8915 147.656 31.8915C148.825 31.8915 149.887 32.1658 150.841 32.7144C151.795 33.2511 152.546 34.0025 153.095 34.9685C153.643 35.9346 153.918 37.0318 153.918 38.2602C153.918 39.4886 153.643 40.5858 153.095 41.5519C152.546 42.5179 151.795 43.2752 150.841 43.8239C149.887 44.3605 148.825 44.6289 147.656 44.6289ZM147.656 43.2156C148.527 43.2156 149.308 43.0129 150 42.6074C150.704 42.2019 151.252 41.6234 151.646 40.8721C152.051 40.1207 152.254 39.2501 152.254 38.2602C152.254 37.2584 152.051 36.3878 151.646 35.6483C151.252 34.897 150.709 34.3185 150.018 33.913C149.326 33.5075 148.539 33.3048 147.656 33.3048C146.774 33.3048 145.987 33.5075 145.295 33.913C144.603 34.3185 144.055 34.897 143.649 35.6483C143.255 36.3878 143.059 37.2584 143.059 38.2602C143.059 39.2501 143.255 40.1207 143.649 40.8721C144.055 41.6234 144.603 42.2019 145.295 42.6074C145.999 43.0129 146.786 43.2156 147.656 43.2156ZM157.659 32.0346V39.9239C157.659 41.0331 157.927 41.856 158.464 42.3927C159.013 42.9294 159.77 43.1977 160.736 43.1977C161.69 43.1977 162.435 42.9294 162.972 42.3927C163.521 41.856 163.795 41.0331 163.795 39.9239V32.0346H165.423V39.906C165.423 40.9436 165.214 41.8202 164.797 42.5358C164.379 43.2395 163.813 43.7642 163.097 44.1101C162.394 44.456 161.601 44.6289 160.718 44.6289C159.836 44.6289 159.036 44.456 158.321 44.1101C157.617 43.7642 157.057 43.2395 156.639 42.5358C156.234 41.8202 156.031 40.9436 156.031 39.906V32.0346H157.659ZM177.942 44.5037H176.314L169.767 34.5749V44.5037H168.139V32.0167H169.767L176.314 41.9276V32.0167H177.942V44.5037ZM184.599 32.0346C185.959 32.0346 187.134 32.291 188.124 32.8039C189.125 33.3048 189.889 34.0263 190.414 34.9685C190.95 35.9107 191.219 37.0199 191.219 38.296C191.219 39.5721 190.95 40.6813 190.414 41.6234C189.889 42.5537 189.125 43.2693 188.124 43.7702C187.134 44.2592 185.959 44.5037 184.599 44.5037H180.717V32.0346H184.599ZM184.599 43.1619C186.209 43.1619 187.438 42.7386 188.285 41.8918C189.131 41.0331 189.555 39.8345 189.555 38.296C189.555 36.7456 189.125 35.535 188.267 34.6644C187.42 33.7938 186.198 33.3585 184.599 33.3585H182.345V43.1619H184.599ZM200.736 41.7308H195.298L194.296 44.5037H192.579L197.087 32.1062H198.965L203.456 44.5037H201.738L200.736 41.7308ZM200.271 40.4069L198.017 34.1098L195.763 40.4069H200.271ZM211.986 44.5037L209.016 39.4051H207.048V44.5037H205.42V32.0346H209.445C210.388 32.0346 211.181 32.1956 211.825 32.5176C212.481 32.8397 212.97 33.275 213.292 33.8236C213.614 34.3722 213.775 34.9983 213.775 35.702C213.775 36.5607 213.524 37.318 213.023 37.974C212.534 38.6299 211.795 39.0652 210.805 39.2799L213.936 44.5037H211.986ZM207.048 38.0992H209.445C210.328 38.0992 210.99 37.8845 211.431 37.4552C211.873 37.0139 212.093 36.4295 212.093 35.702C212.093 34.9626 211.873 34.3901 211.431 33.9846C211.002 33.5791 210.34 33.3763 209.445 33.3763H207.048V38.0992ZM217.932 32.0346V44.5037H216.304V32.0346H217.932ZM222.335 33.3585V37.5267H226.879V38.8684H222.335V43.1619H227.415V44.5037H220.707V32.0167H227.415V33.3585H222.335ZM233.832 44.6289C233.009 44.6289 232.27 44.4858 231.614 44.1995C230.97 43.9014 230.463 43.4959 230.093 42.983C229.724 42.4583 229.533 41.856 229.521 41.1762H231.256C231.316 41.7606 231.554 42.2555 231.972 42.661C232.401 43.0546 233.021 43.2514 233.832 43.2514C234.608 43.2514 235.216 43.0606 235.657 42.6789C236.11 42.2854 236.337 41.7844 236.337 41.1762C236.337 40.6991 236.206 40.3115 235.943 40.0134C235.681 39.7152 235.353 39.4886 234.959 39.3336C234.566 39.1785 234.035 39.0116 233.367 38.8327C232.544 38.618 231.882 38.4033 231.381 38.1886C230.892 37.974 230.469 37.64 230.111 37.1868C229.765 36.7217 229.593 36.1015 229.593 35.3263C229.593 34.6465 229.765 34.0442 230.111 33.5195C230.457 32.9947 230.94 32.5892 231.56 32.303C232.192 32.0167 232.914 31.8736 233.725 31.8736C234.894 31.8736 235.848 32.1658 236.587 32.7502C237.339 33.3346 237.762 34.1098 237.857 35.0759H236.069C236.009 34.5988 235.758 34.1814 235.317 33.8236C234.876 33.4539 234.292 33.269 233.564 33.269C232.884 33.269 232.33 33.4479 231.9 33.8057C231.471 34.1516 231.256 34.6405 231.256 35.2726C231.256 35.7258 231.381 36.0956 231.632 36.3818C231.894 36.668 232.21 36.8887 232.58 37.0437C232.962 37.1868 233.492 37.3538 234.172 37.5446C234.995 37.7712 235.657 37.9978 236.158 38.2244C236.659 38.4391 237.088 38.779 237.446 39.2441C237.804 39.6973 237.983 40.3175 237.983 41.1046C237.983 41.7129 237.822 42.2854 237.5 42.822C237.178 43.3587 236.701 43.794 236.069 44.128C235.436 44.4619 234.691 44.6289 233.832 44.6289Z" fill="#5038BC"/>
<defs>
<radialGradient id="paint0_radial_3008_11221" cx="0" cy="0" r="1" gradientUnits="userSpaceOnUse" gradientTransform="translate(6.19204 7.12935) rotate(90) scale(4.52657 7.89712)">
<stop/>
<stop offset="0.917127" stop-opacity="0"/>
</radialGradient>
<radialGradient id="paint1_radial_3008_11221" cx="0" cy="0" r="1" gradientUnits="userSpaceOnUse" gradientTransform="translate(10.3799 24.6759) rotate(90) scale(4.89077 7.36619)">
<stop/>
<stop offset="0.917127" stop-opacity="0"/>
</radialGradient>
<radialGradient id="paint2_radial_3008_11221" cx="0" cy="0" r="1" gradientUnits="userSpaceOnUse" gradientTransform="translate(23.996 18.2296) rotate(90) scale(4.55731 7.03136)">
<stop/>
<stop offset="0.917127" stop-opacity="0"/>
</radialGradient>
<radialGradient id="paint3_radial_3008_11221" cx="0" cy="0" r="1" gradientUnits="userSpaceOnUse" gradientTransform="translate(12.821 4.56834) rotate(90) scale(4.56834 12.821)">
<stop/>
<stop offset="0.917127" stop-opacity="0"/>
</radialGradient>
</defs>
</svg>
